# xmcd CD database file
#
# Track frame offsets:
#	150
#	20127
#	36150
#	50462
#	68887
#	86505
#	119875
#	135767
#	153305
#	165960
#	183047
#	207542
#
# Disc length: 3115 seconds
#
# Revision: 4
# Processed by: cddbd v1.4PL0 Copyright (c) Steve Scherf et al.
# Submitted via: CDex 1.40Release
#
DISCID=9d0c290c
DTITLE=Far - Tin Cans With Strings To You
DYEAR=1996
DGENRE=Rock
TTITLE0=What I've Wanted To Say
TTITLE1=Love, American Style
TTITLE2=In The Aisle, Yelling
TTITLE3=Girl
TTITLE4=Seasick
TTITLE5=Job's Eyes
TTITLE6=Punchdrunk
TTITLE7=Celebrate Her
TTITLE8=Boring Life
TTITLE9=Joining The Circus
TTITLE10=Cut-Out
TTITLE11=Sorrow's End
EXTD=YEAR: 1996 ID3G: 17
EXTT0=
EXTT1=
EXTT2=
EXTT3=
EXTT4=
EXTT5=
EXTT6=
EXTT7=
EXTT8=
EXTT9=
EXTT10=
EXTT11=
PLAYORDER=
